<svg width="95" height="33" viewBox="0 0 95 33" fill="none" xmlns="http://www.w3.org/2000/svg">
    <path
        d="M5.51455 31.6721V0.400391H11.469V31.6721H5.51455ZM0.601562 4.85554V0.400391H11.469V4.85554H0.601562Z"
        fill="white" />
    <path
        d="M24.4784 32.4004C21.7939 32.4004 19.7091 31.5151 18.2241 29.7444C16.7676 27.9738 16.0393 25.3464 16.0393 21.8622V8.36826H21.9938V22.3763C21.9938 23.8042 22.3936 24.9466 23.1933 25.8033C23.9929 26.6315 25.0781 27.0456 26.4489 27.0456C27.8198 27.0456 28.9336 26.603 29.7903 25.7177C30.6756 24.8323 31.1183 23.6329 31.1183 22.1193V8.36826H37.0728V31.6721H32.3606V21.7766H32.8318C32.8318 24.1184 32.532 26.0746 31.9322 27.6454C31.3325 29.2161 30.4329 30.4013 29.2334 31.2009C28.034 32.0006 26.5346 32.4004 24.7354 32.4004H24.4784Z"
        fill="white" />
    <path
        d="M42.1993 31.6721V8.4111H46.9115V18.3924H46.4831C46.4831 16.022 46.7972 14.0514 47.4255 12.4807C48.0538 10.8814 48.982 9.68196 50.21 8.88232C51.4666 8.08268 53.023 7.68285 54.8793 7.68285H55.1364C57.9066 7.68285 60.0056 8.58245 61.4336 10.3816C62.8615 12.1523 63.5755 14.8082 63.5755 18.3495V31.6721H57.621V17.8355C57.621 16.4075 57.2069 15.2509 56.3787 14.3656C55.579 13.4803 54.4652 13.0376 53.0373 13.0376C51.5808 13.0376 50.3956 13.4945 49.4817 14.4084C48.5964 15.2937 48.1538 16.4932 48.1538 18.0068V31.6721H42.1993Z"
        fill="white" />
    <path
        d="M75.3345 32.1145C72.5197 32.1145 70.308 31.4309 68.6995 30.0637C67.1178 28.6964 66.327 26.8869 66.327 24.635C66.327 22.2759 67.1312 20.4529 68.7397 19.1662C70.375 17.8794 72.7207 17.236 75.7768 17.236H83.1357V16.2709C83.1357 13.322 81.42 11.8475 77.9885 11.8475C75.0932 11.8475 73.3373 12.8931 72.7207 14.9841H66.7291C67.2116 12.4105 68.418 10.4535 70.3482 9.11311C72.3052 7.7459 74.852 7.06229 77.9885 7.06229C81.5272 7.06229 84.2214 7.86653 86.0712 9.47502C87.9209 11.0567 88.8458 13.3756 88.8458 16.4317V25.6805H94.6016V31.6721H85.5484V27.8118H83.8595C83.0284 29.179 81.9025 30.2379 80.4817 30.9885C79.0876 31.7392 77.3719 32.1145 75.3345 32.1145ZM76.2192 27.4901C77.5328 27.4901 78.7123 27.2488 79.7578 26.7663C80.8034 26.2569 81.621 25.5867 82.2108 24.7556C82.8274 23.8978 83.1357 22.9461 83.1357 21.9006V21.3376H76.0985C73.3909 21.3376 72.0371 22.3429 72.0371 24.3535C72.0371 25.3454 72.399 26.1229 73.1228 26.6858C73.8735 27.222 74.9056 27.4901 76.2192 27.4901Z"
        fill="white" />
</svg>
    