<svg width="156" height="53" viewBox="0 0 156 53" fill="none" xmlns="http://www.w3.org/2000/svg">
<path d="M8.12236 51.6998V0H17.9666V51.6998H8.12236ZM0 7.36545V0H17.9666V7.36545H0Z" fill="#0E0E0E"/>
<path d="M39.4742 52.9038C35.0361 52.9038 31.5894 51.4401 29.1343 48.5129C26.7263 45.5856 25.5224 41.2418 25.5224 35.4817V13.1728H35.3666V36.3315C35.3666 38.6922 36.0276 40.5808 37.3496 41.9973C38.6716 43.3665 40.4657 44.0511 42.732 44.0511C44.9983 44.0511 46.8397 43.3193 48.2561 41.8556C49.7198 40.392 50.4516 38.409 50.4516 35.9066V13.1728H60.2958V51.6998H52.5054V35.34H53.2845C53.2845 39.2116 52.7887 42.4458 51.7972 45.0426C50.8057 47.6394 49.3185 49.5988 47.3355 50.9208C45.3524 52.2428 42.8737 52.9038 39.8992 52.9038H39.4742Z" fill="#0E0E0E"/>
<path d="M68.7712 51.6998V13.2437H76.5616V29.7451H75.8534C75.8534 25.8263 76.3727 22.5685 77.4114 19.9717C78.4502 17.3277 79.9846 15.3447 82.0148 14.0227C84.0923 12.7007 86.6655 12.0397 89.7344 12.0397H90.1593C94.7391 12.0397 98.2094 13.5269 100.57 16.5015C102.931 19.4287 104.111 23.8197 104.111 29.6743V51.6998H94.267V28.8244C94.267 26.4637 93.5824 24.5515 92.2132 23.0879C90.8912 21.6242 89.0498 20.8924 86.6891 20.8924C84.2811 20.8924 82.3217 21.6478 80.8109 23.1587C79.3472 24.6223 78.6154 26.6053 78.6154 29.1077V51.6998H68.7712Z" fill="#0E0E0E"/>
<path d="M123.552 52.4311C118.898 52.4311 115.242 51.3009 112.582 49.0406C109.968 46.7803 108.66 43.7886 108.66 40.0657C108.66 36.1655 109.99 33.1518 112.649 31.0244C115.353 28.897 119.231 27.8333 124.283 27.8333H136.449V26.2378C136.449 21.3625 133.613 18.9249 127.94 18.9249C123.153 18.9249 120.25 20.6534 119.231 24.1104H109.325C110.123 19.8557 112.117 16.6203 115.308 14.4042C118.544 12.1439 122.754 11.0137 127.94 11.0137C133.79 11.0137 138.244 12.3434 141.302 15.0026C144.36 17.6175 145.889 21.4512 145.889 26.5037V41.7942H155.405V51.6998H140.438V45.3177H137.646C136.272 47.578 134.41 49.3287 132.061 50.5697C129.757 51.8106 126.92 52.4311 123.552 52.4311ZM125.014 44.7859C127.186 44.7859 129.136 44.387 130.865 43.5892C132.593 42.7471 133.945 41.6391 134.92 40.2652C135.939 38.8469 136.449 37.2736 136.449 35.5451V34.6143H124.815C120.339 34.6143 118.1 36.2763 118.1 39.6004C118.1 41.2402 118.699 42.5255 119.895 43.4562C121.136 44.3427 122.843 44.7859 125.014 44.7859Z" fill="#0E0E0E"/>
</svg>
